# xmcd
# 
# Track frame offsets:
#     150
#     15216
#     34747
#     50617
#     69534
#     88390
#     107017
#     127885
#     146548
#     167143
#     196395
#     219218
#     238213
# 
# Disc length: 3399
# 
# Revision: 1
# Processed by: cddbd v1.5.2PL0 Copyright (c) Steve Scherf et al.
# Submitted via: BonkEnc v1.0.6
# 
DISCID=b20d450d
DTITLE=Mr Boogie Woogie and the Hot Wings - They're wings..they're Hot!
DYEAR=2004
DGENRE=Blues
TTITLE0=Don't fight it
TTITLE1=Down the Road
TTITLE2=Baad Habits
TTITLE3=Back to my Roots
TTITLE4=Iko Iko
TTITLE5=Trainbeat Boogie
TTITLE6=What would I Do without You
TTITLE7=Hello, my Lover
TTITLE8=Porkchop Man
TTITLE9=He's got all the whiskey
TTITLE10=Swanee River Boogie
TTITLE11=Trick Bag
TTITLE12=Riot in Cell Block #9
EXTD=
EXTT0=
EXTT1=
EXTT2=
EXTT3=
EXTT4=
EXTT5=
EXTT6=
EXTT7=
EXTT8=
EXTT9=
EXTT10=
EXTT11=
EXTT12=
PLAYORDER=
